# Blender v2.78 (sub 0) OBJ File: ''
# www.blender.org
mtllib objeto_3d.mtl
o pasaje.001
v 1.546888 1.449473 0.655905
v 1.546888 3.118311 0.805577
v -2.525778 3.118311 0.805577
v -2.525777 1.449472 0.655905
v 1.546889 1.448645 0.665137
v -2.525777 1.448645 0.665137
v -2.525778 3.117484 0.814809
v 1.546887 3.117484 0.814809
vt 0.9091 0.1547
vt 0.8843 0.6731
vt 0.0820 0.5474
vt 0.1071 0.0294
vt 0.1089 0.0305
vt 0.9036 0.1472
vt 0.8670 0.6681
vt 0.0884 0.5467
vt 0.5107 0.5504
vt 0.5518 0.5200
vt 0.4720 0.5114
vt 0.5062 0.5537
vt 0.4679 0.5895
vt 0.5091 0.5591
vt 0.5478 0.5981
vt 0.5135 0.5559
vn 0.0000 -0.0893 0.9960
vn 0.0000 0.0893 -0.9960
vn -1.0000 -0.0000 -0.0000
vn 0.0000 -0.9960 -0.0892
vn 1.0000 -0.0000 0.0000
vn -0.0000 0.9960 0.0893
usemtl Material.001
s 1
f 1/1/1 2/2/1 3/3/1 4/4/1
f 5/5/2 6/6/2 7/7/2 8/8/2
f 1/9/3 5/10/3 8/11/3 2/12/3
f 2/12/4 8/11/4 7/13/4 3/14/4
f 3/14/5 7/13/5 6/15/5 4/16/5
f 5/10/6 1/9/6 4/16/6 6/15/6
o pasaje
v 1.780577 1.994252 0.595484
v 1.780577 3.663090 0.745156
v -2.292089 3.663090 0.745156
v -2.292089 1.994251 0.595484
v 1.780577 1.993424 0.604715
v -2.292089 1.993424 0.604715
v -2.292090 3.662263 0.754388
v 1.780575 3.662263 0.754388
vt 0.9091 0.1547
vt 0.8843 0.6731
vt 0.0820 0.5474
vt 0.1071 0.0294
vt 0.1089 0.0305
vt 0.9036 0.1472
vt 0.8670 0.6681
vt 0.0884 0.5467
vt 0.5107 0.5504
vt 0.5518 0.5200
vt 0.4720 0.5114
vt 0.5062 0.5537
vt 0.4679 0.5895
vt 0.5091 0.5591
vt 0.5478 0.5981
vt 0.5135 0.5559
vn 0.0000 -0.0893 0.9960
vn 0.0000 0.0893 -0.9960
vn -1.0000 0.0000 -0.0001
vn 0.0000 -0.9960 -0.0892
vn 1.0000 -0.0000 0.0001
vn -0.0000 0.9960 0.0893
usemtl Material.001
s 1
f 9/17/7 10/18/7 11/19/7 12/20/7
f 13/21/8 14/22/8 15/23/8 16/24/8
f 9/25/9 13/26/9 16/27/9 10/28/9
f 10/28/10 16/27/10 15/29/10 11/30/10
f 11/30/11 15/29/11 14/31/11 12/32/11
f 13/26/12 9/25/12 12/32/12 14/31/12
o Collider
v -2.623789 1.513821 0.848652
v -2.623789 3.723901 0.848653
v -2.623789 3.723901 0.568982
v -2.623789 1.513821 0.568981
v 1.924493 3.723901 0.568982
v 1.924493 1.513821 0.568981
v 1.924493 3.723901 0.848653
v 1.924493 1.513821 0.848652
vt 0.0000 0.0000
vt 1.0000 0.0000
vt 1.0000 1.0000
vt 0.0000 1.0000
vt 0.0000 0.0000
vt 1.0000 0.0000
vt 1.0000 1.0000
vt 0.0000 1.0000
vt 0.0000 0.0000
vt 1.0000 0.0000
vt 1.0000 1.0000
vt 0.0000 1.0000
vt 0.0000 0.0000
vt 1.0000 0.0000
vt 1.0000 1.0000
vt 0.0000 1.0000
vt 1.0000 0.0000
vt 1.0000 1.0000
vt 0.0000 0.0000
vt 0.0000 1.0000
vn -1.0000 0.0000 0.0000
vn 0.0000 0.0000 -1.0000
vn 1.0000 -0.0000 0.0000
vn 0.0000 -0.0000 1.0000
vn 0.0000 -1.0000 0.0000
vn 0.0000 1.0000 0.0000
usemtl None
s off
f 17/33/13 18/34/13 19/35/13 20/36/13
f 20/37/14 19/38/14 21/39/14 22/40/14
f 22/41/15 21/42/15 23/43/15 24/44/15
f 24/45/16 23/46/16 18/47/16 17/48/16
f 20/37/17 22/49/17 24/50/17 17/48/17
f 21/51/18 19/38/18 18/47/18 23/52/18
